<svg width="85" height="84" viewBox="0 0 85 84" fill="none" xmlns="http://www.w3.org/2000/svg">
<path opacity="0.05" d="M45 0.0976562L84.2352 44.6127L39.7202 83.8479L0.484989 39.3329L45 0.0976562Z" fill="#1D92FF"/>
<path d="M57 36.7643C57 38.231 55.7727 39.431 54.2727 39.431C54.0273 39.431 53.7955 39.4043 53.5773 39.3377L48.7227 44.071C48.7909 44.2843 48.8182 44.5243 48.8182 44.7643C48.8182 46.231 47.5909 47.431 46.0909 47.431C44.5909 47.431 43.3636 46.231 43.3636 44.7643C43.3636 44.5243 43.3909 44.2843 43.4591 44.071L39.9818 40.671C39.7636 40.7377 39.5182 40.7643 39.2727 40.7643C39.0273 40.7643 38.7818 40.7377 38.5636 40.671L32.3591 46.751C32.4273 46.9643 32.4545 47.191 32.4545 47.431C32.4545 48.8977 31.2273 50.0977 29.7273 50.0977C28.2273 50.0977 27 48.8977 27 47.431C27 45.9643 28.2273 44.7643 29.7273 44.7643C29.9727 44.7643 30.2045 44.791 30.4227 44.8577L36.6409 38.791C36.5727 38.5777 36.5455 38.3377 36.5455 38.0977C36.5455 36.631 37.7727 35.431 39.2727 35.431C40.7727 35.431 42 36.631 42 38.0977C42 38.3377 41.9727 38.5777 41.9045 38.791L45.3818 42.191C45.6 42.1243 45.8455 42.0977 46.0909 42.0977C46.3364 42.0977 46.5818 42.1243 46.8 42.191L51.6409 37.4443C51.5727 37.231 51.5455 37.0043 51.5455 36.7643C51.5455 35.2977 52.7727 34.0977 54.2727 34.0977C55.7727 34.0977 57 35.2977 57 36.7643Z" fill="#002547"/>
</svg>
