<svg width="85" height="84" viewBox="0 0 85 84" fill="none" xmlns="http://www.w3.org/2000/svg">
<path opacity="0.05" d="M45 0.0976562L84.2352 44.6127L39.7202 83.8479L0.484989 39.3329L45 0.0976562Z" fill="#1D92FF"/>
<path d="M42.4987 36.765C39.8283 36.765 37.6654 38.9279 37.6654 41.5983C37.6654 44.2687 39.8283 46.4316 42.4987 46.4316C45.1691 46.4316 47.332 44.2687 47.332 41.5983C47.332 38.9279 45.1691 36.765 42.4987 36.765ZM53.3012 40.39C52.7454 35.3512 48.7458 31.3516 43.707 30.7958V28.3066H41.2904V30.7958C36.2516 31.3516 32.252 35.3512 31.6962 40.39H29.207V42.8066H31.6962C32.252 47.8454 36.2516 51.845 41.2904 52.4008V54.89H43.707V52.4008C48.7458 51.845 52.7454 47.8454 53.3012 42.8066H55.7904V40.39H53.3012ZM42.4987 50.0566C37.8224 50.0566 34.0404 46.2746 34.0404 41.5983C34.0404 36.9221 37.8224 33.14 42.4987 33.14C47.1749 33.14 50.957 36.9221 50.957 41.5983C50.957 46.2746 47.1749 50.0566 42.4987 50.0566Z" fill="#002547"/>
</svg>
