<svg width="85" height="84" viewBox="0 0 85 84" fill="none" xmlns="http://www.w3.org/2000/svg">
<path opacity="0.05" d="M45 0.0976562L84.2352 44.6127L39.7202 83.8479L0.484989 39.3329L45 0.0976562Z" fill="#1D92FF"/>
<path d="M54.5846 35.4596L52.8809 33.7559L49.4371 37.6346C46.948 34.8313 43.5042 33.1396 39.6134 33.1396C36.1213 33.1396 32.9192 34.5413 30.418 36.7646L32.1338 38.4805C34.188 36.6801 36.7859 35.5563 39.6134 35.5563C42.9242 35.5563 45.7638 37.0788 47.7938 39.4713L44.3138 43.3863L39.4805 38.553L30.418 47.6276L32.2305 49.4401L39.4805 42.178L44.3138 47.0113L49.2076 41.5134C50.1138 43.1446 50.718 45.0176 50.9475 47.0113H53.3763C53.1105 44.2321 52.2284 41.7067 50.9113 39.5921L54.5846 35.4596Z" fill="#002547"/>
</svg>
