<svg width="88" height="88" viewBox="0 0 88 88" fill="none" xmlns="http://www.w3.org/2000/svg">
<path opacity="0.3" d="M46.6195 1.16874L86.9816 46.9623L41.188 87.3244L0.825893 41.5309L46.6195 1.16874Z" stroke="#002547" stroke-width="0.3"/>
<path d="M56.7901 40.179C56.7901 35.5028 53.008 31.7207 48.3317 31.7207C43.6555 31.7207 39.8734 35.5028 39.8734 40.179C39.8734 44.372 42.9184 47.8399 46.918 48.5045V53.2653H37.2513V49.6403H38.4596V44.807C38.4596 44.1424 37.9159 43.5986 37.2513 43.5986H33.6263C32.9617 43.5986 32.418 44.1424 32.418 44.807V49.6403H33.6263V55.682H52.9596V53.2653H49.3346V48.577C53.5276 48.0815 56.7901 44.517 56.7901 40.179ZM35.4388 42.3903C36.4417 42.3903 37.2513 41.5807 37.2513 40.5778C37.2513 39.5749 36.4417 38.7653 35.4388 38.7653C34.4359 38.7653 33.6263 39.5749 33.6263 40.5778C33.6263 41.5807 34.4359 42.3903 35.4388 42.3903Z" fill="#002547"/>
</svg>
