<svg width="85" height="84" viewBox="0 0 85 84" fill="none" xmlns="http://www.w3.org/2000/svg">
<path opacity="0.05" d="M45 0.0976562L84.2352 44.6127L39.7202 83.8479L0.484989 39.3329L45 0.0976562Z" fill="#1D92FF"/>
<path d="M41.5 34.7227C37.1462 34.7227 33.625 38.2439 33.625 42.5977H35.875C35.875 39.4927 38.395 36.9727 41.5 36.9727C44.605 36.9727 47.125 39.4927 47.125 42.5977H49.375C49.375 38.2439 45.8538 34.7227 41.5 34.7227ZM42.625 45.1739C43.615 44.7352 44.3125 43.7564 44.3125 42.5977C44.3125 41.0452 43.0525 39.7852 41.5 39.7852C39.9475 39.7852 38.6875 41.0452 38.6875 42.5977C38.6875 43.7452 39.385 44.7352 40.375 45.1739V48.8864L36.5388 52.7227L38.125 54.3089L41.5 50.9339L44.875 54.3089L46.4613 52.7227L42.625 48.8864V45.1739ZM41.5 30.2227C34.6712 30.2227 29.125 35.7689 29.125 42.5977H31.375C31.375 37.0064 35.9088 32.4727 41.5 32.4727C47.0912 32.4727 51.625 37.0064 51.625 42.5977H53.875C53.875 35.7689 48.3288 30.2227 41.5 30.2227Z" fill="#002547"/>
</svg>
